<?xml version="1.0" encoding="UTF-8"?>
<svg id="Layer_1" data-name="Layer 1" xmlns="http://www.w3.org/2000/svg" viewBox="0 0 545.27 409.51">
  <path d="m545.27,332.61v8.2c-.11.25-.28.49-.32.75-1.04,6.14-3.14,11.83-7.08,16.74-4.12,5.12-9.36,8.78-15.27,11.53-6.15,2.85-12.52,4.89-19.43,4.5-6.34-.36-12.68-.75-19.03-1.06-5.71-.27-11.43-.62-17.15-.62-5.6,0-11.2.37-16.79.61-4.28.19-8.57.39-12.85.66-5.44.34-10.89.72-16.33,1.12-4.61.33-9.21.71-13.82,1.07-4.37.34-8.76.57-13.12,1.07-5.26.6-10.58,1.08-15.73,2.23-8.43,1.89-16.76,4.26-24.59,8.02-7.1,3.42-14.11,7.03-21.2,10.46-5.26,2.54-10.46,5.3-15.94,7.3-10.11,3.7-20.65,4.91-31.41,4.07-4.59-.36-8.9-1.57-12.92-3.82-6.91-3.87-11.49-9.66-14.02-17.09-1.66-4.88-2.68-9.82-1.87-15.08.88-5.65,2.9-10.77,6.24-15.37,1.17-1.62,2.51-3.12,3.83-4.74-.57-.22-1.07-.52-1.6-.59-4.81-.71-9.48-1.9-14.04-3.6-7.68-2.85-14.63-6.97-20.76-12.33-7.9-6.9-13.73-15.46-18.5-24.7-4.06-7.86-7.01-16.15-8.69-24.89-1.47-7.67-2.5-15.36-2.42-23.18.06-5.26.14-10.52.38-15.78.13-2.85.62-5.69.95-8.53.27-2.35.55-4.7.86-7.42-10.99,6.3-22.63,8.4-34.81,7.69-1.18,3.95-2.28,7.73-3.42,11.49-1.5,4.93-2.94,9.88-4.58,14.76-2.92,8.69-5.88,17.37-8.98,26-1.97,5.47-4.14,10.87-6.35,16.24-2.06,5-4.4,9.88-6.4,14.91-1.85,4.66-3.38,9.44-5.1,14.15-1.85,5.07-3.9,10.07-5.61,15.18-1.77,5.27-4.09,10.24-7.21,14.81-4.77,7-11.23,12.08-18.77,15.83-9.58,4.76-19.69,6.71-30.34,5.34-5.07-.65-9.84-2.38-14.2-5.01-11.83-7.13-19.5-17.34-22.42-30.93-.77-3.59-1.27-7.31-.39-10.91.99-4.03,2.19-8.06,3.79-11.88,2.2-5.26,4.52-10.52,7.37-15.45,5.08-8.77,10.83-17.16,15.88-25.95,5.06-8.8,9.81-17.79,14.3-26.9,2.77-5.61,4.85-11.56,7.12-17.41,1.09-2.83,1.89-5.77,3-9.2-3.26,0-6.2.14-9.13-.04-3.48-.21-6.94-.73-10.42-1.07-2.61-.26-5.25-.34-7.85-.7-4.49-.62-8.94-1.5-13.43-2.08-5.12-.67-10.15-1.65-14.91-3.68-10.77-4.6-18.88-12.15-24.43-22.46-3.34-6.22-5.1-12.85-5.34-19.92-.21-5.96.35-11.84,1.5-17.66.76-3.86,1.54-7.79,2.99-11.42,3.63-9.09,7.75-17.98,11.47-27.03,3.39-8.23,6.43-16.61,9.78-24.86,5.02-12.34,10.14-24.64,15.28-36.92,4.67-11.14,12.7-18.93,23.76-23.71,6.11-2.64,12.49-3.94,19.1-4.15,1.69-.05,3.39.28,5.08.32,4.39.09,8.53,1.25,12.45,3.09,5.53,2.59,10.1,6.37,13.99,11.14,6.34,7.78,8.36,16.59,6.48,26.23-.96,4.92-2.52,9.78-4.28,14.49-3.06,8.17-7.44,15.66-12.73,22.6-4.65,6.1-9.48,12.08-13.95,18.31-4.6,6.41-8.98,12.98-13.22,19.63-3.05,4.79-5.7,9.83-8.69,15.04,2.22-.28,4.09-.74,5.96-.7,6.36.13,12.74.23,19.08.74,4.37.35,8.71,1.25,13.02,2.12,3.3.67,3.27.82,4.31-2.25,3.03-8.92,6.05-17.85,9.09-26.77,2.54-7.45,5.07-14.9,7.65-22.33,2.34-6.77,4.75-13.51,7.11-20.27,1.57-4.5,3.07-9.03,4.7-13.52,2.05-5.67,4.22-11.29,6.3-16.95,1.73-4.69,3.33-9.43,5.13-14.09,2.37-6.13,4.88-12.21,7.33-18.31,2.23-5.53,4.77-10.88,8.93-15.29,5.19-5.5,11.51-8.45,19.12-8.56,5.07-.08,10.07.3,15.1,1.01,4.1.58,8.15,1.32,11.79,3.17,11.12,5.66,17.69,14.82,19.17,27.19.7,5.81.16,11.74-1.61,17.42-1.33,4.26-2.73,8.5-4.19,12.72-1.8,5.23-3.68,10.44-5.55,15.64-2.53,7.01-5.04,14.04-7.65,21.02-2.6,6.95-5.33,13.84-7.97,20.78-2.74,7.2-5.43,14.41-8.15,21.61-1.13,2.99-2.31,5.96-3.49,8.99,11.42,1.27,18.51,4.76,26.45,12.95,2.11-4,4.1-8.06,6.35-11.97,5.95-10.32,12.56-20.21,19.79-29.69,6.91-9.05,14.79-17.15,23.83-24.08,3.9-2.99,7.98-5.76,11.99-8.64-5.75-4.72-10-10.46-12.49-17.5-1.98-5.59-2.96-11.3-1.86-17.16,1.03-5.46,3.57-10.25,7.54-14.23,6.94-6.95,14.8-12.74,22.88-18.26,11.27-7.7,23.45-13.81,35.45-20.2,7.8-4.15,15.73-8.13,24.39-10.29,4.03-1,8.05-2.04,12.1-2.99,2.33-.55,4.7-.94,7.05-1.4h10.7c.23.11.46.28.7.34,4.17.93,8.43,1.56,12.5,2.83,6.8,2.12,12.94,5.63,18.53,10.06,9.39,7.45,17.42,15.94,21.95,27.35,2.85,7.17,4.21,14.59,4.37,22.2.13,5.87-.37,11.77-.65,17.65-.2,4.29-.43,8.57-.77,12.85-.37,4.6-.96,9.19-1.34,13.79-.32,3.91-.42,7.84-.72,11.76-.43,5.54-1,11.07-1.42,16.61-.41,5.38-.73,10.77-1.08,16.16-.25,3.81-.46,7.62-.72,11.43-.34,4.86-.72,9.72-1.06,14.58-.37,5.33-.74,10.65-1.07,15.98-.27,4.33-.47,8.67-.72,13.01-.13,2.23-.27,4.45-.45,6.68-.28,3.49-.62,6.97-.9,10.45-.2,2.53-.28,5.07-.52,7.6-.41,4.41-.93,8.81-1.33,13.22-.32,3.55-.45,7.13-.78,10.68-.52,5.51-1.22,11.01-1.71,16.53-.46,5.24-.72,10.5-1.1,15.75-.2,2.8-.46,5.59-.69,8.39-.14,1.75-.24,3.5-.39,5.25-.3,3.66-.61,7.33-.93,11.11.71,0,1.11.05,1.49,0,4.55-.68,9.11-1.34,13.65-2.07,4.11-.65,8.24-1.24,12.32-2.1,5.75-1.21,11.44-2.7,17.18-3.95,7.18-1.56,14.36-3.15,21.59-4.44,5.04-.9,10.15-1.4,15.25-1.95,1.37-.15,2.81.1,4.18.34,2.56.45,5.23.7,7.63,1.62,4.79,1.84,8.89,4.82,12.35,8.63,4.57,5.04,8.16,10.63,9.79,17.33.57,2.33,1.16,4.65,1.74,6.98Zm-272.25-63.11c.23,2.71.25,4.73.59,6.69.61,3.49,2.34,4.61,5.75,3.04.96-.44,1.88-1.02,2.74-1.64,5.21-3.82,9.36-8.69,13.45-13.62,8.04-9.7,13.6-20.78,17.54-32.65,2.06-6.2,3.55-12.6,4.97-18.98.83-3.73,1.06-7.59,1.5-11.4.3-2.55.48-5.12.73-7.68.36-3.72.85-7.42,1.08-11.15.17-2.83.04-5.69,0-8.53-.04-2.67-1.43-4.62-4.36-2.7-2.54,1.67-4.92,3.72-6.95,5.98-9.21,10.29-16.25,22.04-22.59,34.24-3.9,7.5-6.94,15.28-8.96,23.51-1.65,6.74-3.12,13.5-3.88,20.4-.56,5.06-1.12,10.11-1.61,14.48Zm107.22-146.89c.15-.05.3-.11.45-.16-.17-4.04-.34-8.07-.52-12.11-.36-8.23-.68-16.46-1.09-24.69-.13-2.58-.34-5.16-.71-7.71-.68-4.72-3.09-5.93-7.33-3.81-.31.15-.6.34-.88.54-8.42,5.89-16.76,11.92-26.6,16.06,15.65,6.96,27.86,17.47,36.68,31.88Zm-10.87,145.33c-.62.4-.77.44-.8.53-1.84,5.21-3.61,10.44-5.51,15.63-3.94,10.75-9.73,20.4-17.32,28.97-5.91,6.67-12.77,12.21-20.72,17.12,1.28-.08,2.14-.08,2.98-.2,2.88-.41,5.75-.92,8.63-1.3,4.03-.52,8.07-.99,12.12-1.43,4.57-.5,9.14-1.05,13.72-1.36,1.34-.09,1.86-.49,1.97-1.69.38-4.2.76-8.4,1.12-12.6.26-3.09.44-6.19.74-9.27.43-4.35.96-8.7,1.4-13.05.29-2.91.5-5.83.73-8.75.32-4.08.62-8.17.96-12.6Z"/>
</svg>